<svg width="68" height="50" viewBox="0 0 68 50" fill="none" xmlns="http://www.w3.org/2000/svg">
<path d="M0 8C0 3.58172 3.58172 0 8 0H60C64.4183 0 68 3.58172 68 8V42C68 46.4183 64.4183 50 60 50H8C3.58172 50 0 46.4183 0 42V8Z" fill="#4F46E5"/>
<g clip-path="url(#clip0_3_95)">
<path d="M36.1134 33.0717C36.145 33.1506 36.2001 33.2179 36.2711 33.2646C36.3421 33.3113 36.4258 33.3352 36.5107 33.333C36.5957 33.3309 36.678 33.3027 36.7466 33.2524C36.8151 33.2021 36.8666 33.1321 36.8942 33.0517L42.3109 17.2183C42.3375 17.1445 42.3426 17.0646 42.3255 16.988C42.3085 16.9113 42.2699 16.8412 42.2144 16.7856C42.1589 16.7301 42.0887 16.6916 42.0121 16.6745C41.9355 16.6574 41.8555 16.6625 41.7817 16.6892L25.9484 22.1058C25.868 22.1334 25.7979 22.1849 25.7476 22.2535C25.6973 22.322 25.6692 22.4043 25.667 22.4893C25.6648 22.5743 25.6887 22.6579 25.7354 22.7289C25.7821 22.8 25.8495 22.855 25.9284 22.8867L32.5367 25.5367C32.7456 25.6203 32.9354 25.7454 33.0947 25.9044C33.2539 26.0633 33.3794 26.2529 33.4634 26.4617L36.1134 33.0717Z" stroke="white" stroke-width="2" stroke-linecap="round" stroke-linejoin="round"/>
<path d="M42.2116 16.7892L33.095 25.905" stroke="white" stroke-width="2" stroke-linecap="round" stroke-linejoin="round"/>
</g>
<defs>
<clipPath id="clip0_3_95">
<rect width="20" height="20" fill="white" transform="translate(24 15)"/>
</clipPath>
</defs>
</svg>
